<?xml version="1.0" encoding="UTF-8" standalone="no"?>
<!-- Created with Inkscape (http://www.inkscape.org/) -->

<svg
   width="189.89641mm"
   height="34.07671mm"
   viewBox="0 0 189.89641 34.07671"
   version="1.1"
   id="svg1"
   xml:space="preserve"
   xmlns="http://www.w3.org/2000/svg"
   xmlns:svg="http://www.w3.org/2000/svg"><defs
     id="defs1" /><g
     id="layer1"
     transform="translate(-8.1265928,-65.07131)"><path
       style="fill:#225791"
       d="m 151.66306,98.924933 c -1.2054,-0.2909 -2.00379,-0.79025 -3.23997,-2.02642 -1.14653,-1.14654 -1.42675,-2.08343 -0.80816,-2.70202 0.56876,-0.56876 1.14046,-0.33842 2.14613,0.86469 0.75133,0.89882 1.31534,1.27934 2.35301,1.5875 1.81214,0.53815 1.82308,0.53647 2.96618,-0.45459 1.42334,-1.23403 2.03082,-3.08349 2.19438,-6.68073 l 0.13233,-2.91042 -1.28445,1.37092 c -1.55834,1.66323 -2.21883,1.93638 -4.68239,1.93638 -3.26213,0 -3.62174,-0.64912 -3.59115,-6.4823 0.0314,-5.9894 0.69453,-8.4876 2.02815,-7.64078 0.50859,0.32294 0.51555,0.56193 0.18537,6.37017 -0.1009,1.77502 -0.10218,3.76932 -0.003,4.43177 l 0.18062,1.20447 h 1.26701 c 0.98602,0 1.5084,-0.17487 2.3555,-0.7885 1.97052,-1.42744 2.52975,-2.98887 2.54958,-7.11871 0.0111,-2.31966 0.0854,-2.79357 0.47622,-3.04135 0.83516,-0.52944 1.35935,0.11603 1.71369,2.11017 1.03089,5.80154 1.11566,12.73464 0.19056,15.58526 -0.4018,1.23809 -0.85153,1.92236 -2.04329,3.10886 -1.48381,1.47727 -1.56815,1.52057 -2.91041,1.49427 -0.76028,-0.0149 -1.73951,-0.11328 -2.17607,-0.21864 z m 14.67682,-7.09683 c -1.87799,-1.21245 -2.90775,-3.26193 -2.01234,-4.00505 0.61428,-0.50981 1.27237,-0.2582 1.94837,0.74491 1.1649,1.7286 2.65649,2.20446 4.96631,1.58438 1.55409,-0.4172 1.75913,-0.80736 1.27717,-2.43029 -0.22054,-0.74263 -0.59812,-1.62393 -0.83907,-1.95843 -0.54917,-0.7624 -2.12065,-1.52442 -4.00997,-1.94446 -2.0065,-0.4461 -2.97041,-1.09541 -3.65192,-2.46 -0.86786,-1.73773 -0.79068,-3.49554 0.21344,-4.86093 1.20889,-1.64384 2.26082,-2.02911 5.09841,-1.86732 1.76426,0.10059 2.53456,0.26329 3.04271,0.64268 1.01658,0.75899 1.30325,1.31899 0.95753,1.8705 -0.40792,0.65072 -1.26869,0.71113 -2.12627,0.14923 -0.52597,-0.34463 -1.24094,-0.47896 -2.5515,-0.47938 -1.66716,-5.3e-4 -1.87469,0.062 -2.45992,0.74178 -0.80071,0.93001 -0.79974,1.31838 0.007,2.69454 0.5824,0.9938 0.79698,1.1349 2.18281,1.43545 3.67768,0.79757 5.43414,2.24451 6.28733,5.17941 1.11265,3.82736 -0.2187,5.40337 -4.74897,5.62171 -2.27735,0.10975 -2.43566,0.0806 -3.58087,-0.65873 z m 15.29731,-0.49551 c -1.56673,-1.11474 -2.40956,-2.54983 -2.53767,-4.32087 -0.10649,-1.47219 -0.0705,-1.57758 0.91071,-2.66489 1.28759,-1.42685 2.28643,-1.84493 4.40782,-1.84493 1.26464,0 2.00404,0.16231 2.97208,0.65239 0.70875,0.35882 1.34114,0.59989 1.4053,0.53572 0.2826,-0.2826 -0.63104,-3.42739 -1.30406,-4.48863 -0.95819,-1.51091 -2.08372,-2.10321 -3.94602,-2.07655 -1.38328,0.0198 -2.37285,0.42221 -4.29948,1.74836 -0.55365,0.38109 -1.33771,-0.003 -1.47965,-0.72529 -0.12414,-0.63153 1.16607,-1.92787 2.60413,-2.61649 0.94659,-0.45328 1.65157,-0.56585 3.43958,-0.54926 2.93805,0.0273 4.30939,0.7515 5.67277,2.99587 1.69465,2.78969 2.20254,8.15085 0.99435,10.49616 -1.22938,2.38647 -3.22082,3.55272 -6.06645,3.55272 -1.5158,0 -1.95054,-0.10883 -2.77341,-0.69431 z m 4.31607,-1.72359 c 1.0651,-0.35674 1.9997,-1.14837 2.50717,-2.12365 0.35939,-0.69068 0.33795,-0.7243 -1.04919,-1.64504 -0.77885,-0.51697 -1.88419,-1.01479 -2.45631,-1.10628 -1.29029,-0.20633 -2.78245,0.36934 -3.39988,1.31166 -0.42168,0.64356 -0.41476,0.73788 0.13785,1.87943 0.87843,1.81458 2.25073,2.35698 4.26036,1.68388 z m 10.34315,2.08255 c -0.16272,-0.19607 -0.39903,-3.35532 -0.56898,-7.60677 -0.15986,-3.99928 -0.47162,-8.34298 -0.6928,-9.65267 -0.539,-3.19165 -0.42326,-7.23984 0.21853,-7.64354 0.33672,-0.2118 0.58933,-0.21188 0.92604,-2.9e-4 0.3782,0.23766 0.49457,0.84327 0.63525,3.30594 0.0947,1.65823 0.29897,3.63463 0.45389,4.39199 0.15491,0.75736 0.41696,4.83821 0.58232,9.06855 0.316,8.0837 0.27879,8.47214 -0.81156,8.47214 -0.25541,0 -0.58962,-0.1509 -0.74269,-0.33535 z m -184.155545,-1.4335 c -1.185717,-0.58427 -4.0142724,-3.4009 -4.0142724,-3.99734 0,-1.34495 1.5101117,-1.47898 2.4709164,-0.2193 0.894692,1.173 2.9909,2.54591 3.887194,2.54591 1.808797,0 4.479617,-3.76171 4.696371,-6.61458 0.106391,-1.40031 -0.988728,-10.04599 -1.559727,-12.31363 l -0.277095,-1.10045 -3.576943,-0.16168 c -2.089313,-0.0944 -3.731002,-0.28954 -3.9473713,-0.46911 -0.4646955,-0.38566 -0.4781958,-1.14673 -0.026984,-1.52121 0.4609733,-0.38257 17.8687403,0.11888 18.3628643,0.52896 0.464497,0.3855 0.433706,1.13928 -0.06339,1.55184 -0.311704,0.25869 -1.339429,0.29749 -4.386445,0.16561 l -3.979364,-0.17224 0.142496,0.72668 c 0.07837,0.39968 0.330536,1.97684 0.560364,3.50481 0.229828,1.52797 0.591793,3.88722 0.804367,5.24278 0.517251,3.29846 0.488291,4.41391 -0.166371,6.40811 -0.677633,2.06418 -1.648795,3.51114 -3.433594,5.11583 -1.310837,1.17855 -1.42398,1.22472 -2.987466,1.21892 -0.960203,-0.004 -1.985265,-0.18353 -2.50555,-0.43991 z m 41.481965,-0.2301 c -0.229497,-0.27653 -0.399178,-1.81655 -0.517446,-4.69635 -0.194352,-4.73246 -0.391471,-5.41317 -1.892065,-6.53386 -1.828741,-1.36577 -3.311718,-1.6554 -4.727438,-0.92331 -0.425022,0.21979 -0.897834,0.63331 -1.050693,0.91892 -0.51704,0.9661 -0.859358,3.29646 -1.026509,6.98804 -0.140333,3.09933 -0.239136,3.72205 -0.629482,3.9674 -0.336884,0.21175 -0.589157,0.21152 -0.926041,-8.5e-4 -0.565484,-0.35648 -0.920372,-4.37746 -1.371858,-15.5435 -0.311379,-7.70097 -0.272513,-8.1067 0.776545,-8.1067 0.932992,0 1.099509,0.67224 1.225748,4.94842 0.06786,2.29884 0.184919,4.57999 0.26012,5.06923 l 0.136729,0.88953 0.577764,-0.54117 c 0.857757,-0.80344 1.877618,-1.10627 3.703843,-1.09979 1.899431,0.007 3.241174,0.54369 4.843275,1.93821 1.812675,1.5778 2.024685,2.30564 2.246029,7.71071 0.13112,3.20183 0.10438,4.86903 -0.08169,5.09322 -0.379037,0.45672 -1.134618,0.41854 -1.546833,-0.0781 z m 54.95415,-0.0724 c -0.978,-1.08068 -0.11694,-2.42656 1.55245,-2.42656 0.99878,0 1.44925,0.41489 1.44925,1.33482 0,1.4057 -2.04459,2.14933 -3.0017,1.09174 z m -49.085866,-0.13501 c -0.192343,-0.23176 -0.317921,-2.47926 -0.363126,-6.49896 l -0.0691,-6.14469 0.919109,-0.75244 c 0.891784,-0.73007 2.932775,-1.33088 4.521107,-1.33088 1.508456,0 4.120977,1.03932 5.364933,2.1343 2.129021,1.87404 3.251985,5.37377 3.012469,9.38841 -0.153877,2.57918 -0.4251,3.29396 -1.249909,3.29396 -0.927592,0 -1.125218,-0.65475 -0.936934,-3.10412 0.15153,-1.97124 0.09176,-2.59815 -0.39778,-4.17193 -1.083901,-3.48455 -1.594142,-4.07711 -4.19995,-4.87759 -1.415863,-0.43493 -1.912342,-0.47574 -2.98618,-0.24544 -2.07753,0.44555 -2.128061,0.62251 -1.907844,6.68155 0.146002,4.0171 0.112942,5.26281 -0.148016,5.57725 -0.414446,0.49937 -1.166069,0.52377 -1.558776,0.0506 z m 36.235136,0.0497 c -1.486174,-0.34728 -2.974701,-1.28529 -3.804381,-2.39739 -0.875277,-1.17321 -1.969298,-4.61006 -2.333873,-7.33182 -0.371183,-2.77109 -0.167491,-7.37417 0.407497,-9.20872 0.533929,-1.70355 2.811059,-4.2692 4.489229,-5.05804 1.39,-0.65337 3.479428,-0.96603 4.800093,-0.71827 1.188715,0.223 3.298035,2.08217 3.298035,2.90691 0,1.298 -1.14985,1.57958 -2.1367,0.52325 -1.448255,-1.55023 -3.066771,-1.72058 -5.146737,-0.54169 -2.815818,1.59596 -4.022415,4.65567 -3.725273,9.44659 0.175953,2.83695 0.933161,6.13355 1.819467,7.92128 1.474493,2.97413 6.174254,3.24066 10.055553,0.57026 0.66737,-0.45916 1.38573,-0.83484 1.59636,-0.83484 0.56664,0 1.02958,0.68046 0.93107,1.36858 -0.0948,0.66221 -2.24603,2.21203 -4.0552,2.9215 -1.3874,0.54407 -4.721384,0.77677 -6.19514,0.4324 z m 36.13864,-0.21065 c -1.47427,-0.68769 -3.64792,-3.69348 -4.79343,-6.6285 -0.76463,-1.95913 -1.47126,-6.70147 -1.4536,-9.75543 0.0297,-5.13361 0.76051,-7.55814 2.03426,-6.74865 0.50931,0.32367 0.52238,0.69099 0.20607,5.78845 -0.35894,5.7845 1.33731,11.60303 4.19712,14.39704 1.05375,1.02951 1.36458,1.1819 2.62369,1.28632 2.91651,0.24186 5.24031,-1.76115 6.6829,-5.76035 l 0.7142,-1.97992 -0.10132,-7.11686 c -0.0933,-6.555 -0.0648,-7.13998 0.36171,-7.40977 0.33664,-0.21296 0.58941,-0.21363 0.92605,-0.002 0.63858,0.40061 0.7967,2.19923 0.83117,9.45476 0.0278,5.85856 0.008,6.10265 -0.65314,7.96449 -0.94963,2.67494 -2.99144,5.32868 -4.83846,6.28854 -1.22894,0.63866 -1.70795,0.7347 -3.57187,0.71615 -1.47409,-0.0147 -2.47182,-0.17032 -3.16535,-0.49383 z M 29.205278,89.266283 c -1.555584,-0.41811 -2.518464,-1.10427 -3.21931,-2.29412 -0.739912,-1.25617 -0.757096,-5.79989 -0.02984,-7.889 0.654738,-1.88078 2.265749,-3.62985 3.698736,-4.01572 2.389908,-0.64353 5.65381,0.97157 7.161117,3.54359 0.369425,0.63038 0.867083,2.0114 1.105906,3.06895 0.405201,1.79428 0.40414,2.03394 -0.01587,3.58557 -0.519239,1.91823 -2.054886,3.67649 -3.597364,4.11887 -1.232326,0.35343 -3.548366,0.29981 -5.103383,-0.11814 z m 5.079144,-2.45461 c 1.552773,-1.13761 1.983751,-3.14763 1.183448,-5.51941 -0.595557,-1.76499 -1.588061,-3.00847 -2.863844,-3.58804 -2.368929,-1.07616 -3.78036,-0.22043 -4.638843,2.81247 -0.586237,2.07109 -0.641819,3.00572 -0.260401,4.37868 0.394577,1.42034 0.837754,1.86231 2.267223,2.26108 1.643218,0.45839 3.408812,0.31723 4.312417,-0.34478 z"
       id="path1" /></g></svg>
