<?xml version="1.0" encoding="UTF-8" standalone="no"?>
<!-- Created with Inkscape (http://www.inkscape.org/) -->

<svg
   width="51.282585mm"
   height="51.308182mm"
   viewBox="0 0 51.282585 51.308182"
   version="1.1"
   id="svg1"
   xml:space="preserve"
   xmlns="http://www.w3.org/2000/svg"
   xmlns:svg="http://www.w3.org/2000/svg"><defs
     id="defs1" /><g
     id="layer1"
     transform="translate(-18.966057,-115.76529)"><path
       style="fill:#225791"
       d="m 35.783527,166.72574 c -1.06944,-0.46599 -2.343427,-1.95916 -2.887843,-3.38469 -0.5836,-1.52814 -0.479974,-4.1375 0.180783,-4.55223 0.83729,-0.52553 1.371639,0.11527 1.543535,1.85102 0.290547,2.93387 1.608969,4.33511 4.080608,4.33696 2.620768,0.002 4.032198,-0.80069 4.883508,-2.77714 1.49703,-3.47559 2.28547,-11.36763 1.83706,-18.38854 -0.26438,-4.13948 -0.62518,-7.08794 -0.90112,-7.36387 -0.28235,-0.28235 -3.03827,0.45538 -4.746258,1.27053 -0.93862,0.44796 -2.219305,1.34541 -2.845968,1.99433 -0.626662,0.64892 -1.377511,1.18075 -1.668552,1.18185 -0.322361,0.001 -1.097884,-0.65483 -1.984375,-1.67866 -2.09721,-2.42212 -3.431688,-3.20939 -5.440162,-3.20939 -1.490735,0 -1.753606,0.0984 -3.731738,1.3971 -1.17042,0.7684 -2.404273,1.69113 -2.741897,2.05052 -0.660516,0.70309 -1.544607,0.84752 -2.056204,0.33592 -0.629425,-0.62942 -0.361577,-2.47085 0.634136,-4.35963 0.5234,-0.99283 1.110792,-2.24416 1.305316,-2.78072 0.490317,-1.35246 2.951625,-4.79287 4.799677,-6.70898 4.571733,-4.7401 9.327847,-6.98345 16.092155,-7.59029 0.54982,-0.0493 0.8218,-0.23257 0.89079,-0.60017 0.15418,-0.82162 1.08242,-1.98437 1.58416,-1.98437 0.74064,0 1.57488,0.74171 1.75461,1.56002 0.1487,0.67706 0.31179,0.78543 1.41001,0.93689 1.4409,0.19873 3.6423,0.60558 5.3429,0.98744 0.65484,0.14704 2.32172,0.75428 3.70416,1.34942 5.27849,2.27238 9.35029,5.78243 11.42708,9.8506 0.76452,1.49761 1.66244,4.99925 1.92367,7.50185 0.14449,1.38415 0.0953,1.76964 -0.27864,2.18282 -0.7057,0.77978 -1.33601,0.6006 -2.19037,-0.62269 -1.38245,-1.97942 -2.27988,-2.75556 -3.88739,-3.36197 -1.94845,-0.73503 -3.6665,-0.62107 -5.5433,0.36768 -1.73232,0.91263 -3.455,2.35635 -3.8869,3.25748 -0.50237,1.04816 -1.17966,1.04993 -2.28984,0.006 -1.59027,-1.49544 -3.02034,-2.46528 -4.10381,-2.78312 l -1.0243,-0.30048 0.15987,1.24186 c 0.96038,7.46032 0.66222,17.53569 -0.66705,22.54082 -0.28985,1.09141 -0.59542,2.27327 -0.67903,2.62637 -0.24762,1.04572 -2.70311,3.36787 -3.90894,3.69668 -1.44662,0.39446 -5.114595,0.34798 -6.090341,-0.0772 z"
       id="path1" /></g></svg>
